<?xml version="1.0" encoding="UTF-8" standalone="no"?>
<svg
   width="24px"
   height="24px"
   fill="#e8eaed"
   version="1.1"
   viewBox="0 -960 960 960"
   id="svg4"
   sodipodi:docname="icon.svg"
   inkscape:version="1.1.2 (0a00cf5339, 2022-02-04)"
   xmlns:inkscape="http://www.inkscape.org/namespaces/inkscape"
   xmlns:sodipodi="http://sodipodi.sourceforge.net/DTD/sodipodi-0.dtd"
   xmlns="http://www.w3.org/2000/svg"
   xmlns:svg="http://www.w3.org/2000/svg">
  <defs
     id="defs8" />
  <sodipodi:namedview
     id="namedview6"
     pagecolor="#ffffff"
     bordercolor="#666666"
     borderopacity="1.0"
     inkscape:pageshadow="2"
     inkscape:pageopacity="0.0"
     inkscape:pagecheckerboard="0"
     showgrid="false"
     inkscape:zoom="16.283354"
     inkscape:cx="16.090051"
     inkscape:cy="14.278385"
     inkscape:window-width="1920"
     inkscape:window-height="1016"
     inkscape:window-x="0"
     inkscape:window-y="0"
     inkscape:window-maximized="1"
     inkscape:current-layer="svg4" />
  <path
     d="m 120,-120 c -22,0 -40.833333,-7.83333 -56.5,-23.5 C 47.833333,-159.16667 40,-178 40,-200 v -480 c 0,-22 7.833333,-40.83333 23.5,-56.5 C 79.166667,-752.16667 98,-760 120,-760 h 126 l 74,-80 h 240 v 80 H 355 l -73,80 H 120 v 480 h 640 v -360 h 80 v 360 c 0,22 -7.83333,40.83333 -23.5,56.5 -15.66667,15.66667 -34.5,23.5 -56.5,23.5 z m 640,-560 v -80 h -80 v -80 h 80 v -80 h 80 v 80 h 80 v 80 h -80 v 80 z m -320,60 c -293.33333,-226.66667 -146.66667,-113.33333 0,0 z"
     fill="#80cc28"
     id="path2"
     sodipodi:nodetypes="sssssscccccccccccssssccccccccccccccc" />
  <g
     id="g1036"
     transform="matrix(0.07324343,0,0,0.07324343,1250.118,-741.82491)"
     style="fill:#80cc28;fill-opacity:1">
    <path
       d="m -7021.942,5078.1886 c -1714.8,-930.408 -3556.4,-112.8 -3894.4,1371.6 0,0 3014.4,-436.4 3894.4,-1371.6"
       fill="#8eb533"
       id="path18"
       style="fill:#80cc28;fill-opacity:1;stroke-width:40" />
    <path
       d="m -9901.942,1632.1806 c -535.6,213.6 -1084.4,931.2 -1371.2,1873.6 -247.2,812.4 -240,1592.408 -24.4,2096.808 96.4,-320 191.6,-590.8 331.2,-854.808 60,-113.6 149.2,-59.2 146.8,31.2 -2,76.8 -20,222.408 -88,542.808 -23.2,107.2 -52,248 -84,408.8 471.2,-287.6 929.6,-944.408 1182.8,-1778.008 287.2,-943.2 231.2,-1844.8 -95.2,-2320"
       fill="#8eb533"
       id="path20"
       style="fill:#80cc28;fill-opacity:1;stroke-width:40" />
    <path
       d="m -11554.742,3397.7966 c 19.6,-66.4 40,-130.8 64.4,-195.2 -605.216,-712.4 -1342.816,-1136.4 -1895.616,-1134 -124.8,562.4 160,1420 778,2187.6 259.748,326.724 567.984,611.76 914,845.192 -88,-475.992 -50.8,-1080.392 139.216,-1703.592 z"
       fill="#8eb533"
       id="path22"
       style="fill:#80cc28;fill-opacity:1;stroke-width:40" />
    <path
       d="m -15101.942,5078.1886 c 1714.8,-930.4 3556.4,-112.8 3894.4,1372 0,0 -3014.4,-436.8 -3894.4,-1372 z"
       fill="#8eb533"
       id="path24"
       style="fill:#80cc28;fill-opacity:1;stroke-width:40" />
  </g>
</svg>
